<svg width="23" height="20" viewBox="0 0 23 20" fill="none" xmlns="http://www.w3.org/2000/svg">
<g id="Component 8">
<path id="Vector" d="M16.1107 0.375C14.0826 0.375 12.3069 1.26552 11.2 2.77079C10.0931 1.26552 8.31742 0.375 6.2893 0.375C4.67488 0.376858 3.1271 1.03252 1.98553 2.19815C0.843964 3.36377 0.201832 4.94417 0.200012 6.59261C0.200012 13.6125 10.3937 19.2946 10.8278 19.5293C10.9422 19.5921 11.0701 19.625 11.2 19.625C11.3299 19.625 11.4578 19.5921 11.5722 19.5293C12.0064 19.2946 22.2 13.6125 22.2 6.59261C22.1982 4.94417 21.5561 3.36377 20.4145 2.19815C19.2729 1.03252 17.7251 0.376858 16.1107 0.375ZM11.2 17.9047C9.40662 16.8376 1.77144 11.9769 1.77144 6.59261C1.773 5.36964 2.24949 4.19721 3.09641 3.33244C3.94334 2.46767 5.09157 1.98114 6.2893 1.97954C8.19957 1.97954 9.8034 3.01849 10.4732 4.68721C10.5324 4.83436 10.6331 4.96022 10.7625 5.04879C10.8919 5.13736 11.0442 5.18465 11.2 5.18465C11.3558 5.18465 11.5081 5.13736 11.6375 5.04879C11.7669 4.96022 11.8676 4.83436 11.9268 4.68721C12.5966 3.01548 14.2005 1.97954 16.1107 1.97954C17.3085 1.98114 18.4567 2.46767 19.3036 3.33244C20.1505 4.19721 20.627 5.36964 20.6286 6.59261C20.6286 11.9688 12.9914 16.8366 11.2 17.9047Z" fill="#919191"/>
</g>
</svg>
