<svg width="17" height="18" viewBox="0 0 17 18" fill="none" xmlns="http://www.w3.org/2000/svg">
<g id="Group">
<path id="Vector" d="M8.49998 9.00008C10.8012 9.00008 12.6666 7.1346 12.6666 4.83341C12.6666 2.53223 10.8012 0.666748 8.49998 0.666748C6.19879 0.666748 4.33331 2.53223 4.33331 4.83341C4.33331 7.1346 6.19879 9.00008 8.49998 9.00008Z" stroke="#E30613"/>
<path id="Vector_2" d="M12.6667 10.6667H12.9598C14.2205 10.6667 15.284 11.6056 15.4404 12.8567L15.7658 15.46C15.8902 16.4547 15.1145 17.3334 14.112 17.3334H2.88798C1.88548 17.3334 1.10984 16.4547 1.23418 15.46L1.5596 12.8567C1.71598 11.6056 2.77949 10.6667 4.0403 10.6667H4.33334" stroke="#E30613" stroke-linecap="round" stroke-linejoin="round"/>
</g>
</svg>
