<svg width="20" height="21" viewBox="0 0 20 21" fill="none" xmlns="http://www.w3.org/2000/svg">
<g id="material-symbols:language">
<path id="Vector" d="M9.99999 18.8175C8.8611 18.8175 7.78471 18.5987 6.77082 18.1609C5.75693 17.7231 4.87166 17.1259 4.11499 16.3692C3.35777 15.6125 2.76055 14.7273 2.32332 13.7134C1.8861 12.6995 1.66721 11.6231 1.66666 10.4842C1.66666 9.33143 1.88555 8.25171 2.32332 7.24505C2.7611 6.23838 3.35832 5.35643 4.11499 4.59921C4.87166 3.84199 5.75666 3.24477 6.76999 2.80755C7.78332 2.37032 8.85999 2.15143 9.99999 2.15088C11.1528 2.15088 12.2328 2.36977 13.24 2.80755C14.2472 3.24532 15.1289 3.84255 15.885 4.59921C16.6422 5.35588 17.2394 6.23782 17.6767 7.24505C18.1139 8.25227 18.3328 9.33199 18.3333 10.4842C18.3333 11.6231 18.1144 12.6995 17.6767 13.7134C17.2389 14.7273 16.6417 15.6128 15.885 16.37C15.1283 17.1267 14.2464 17.7239 13.2392 18.1617C12.2319 18.5995 11.1522 18.8181 9.99999 18.8175ZM9.99999 17.1092C10.3611 16.6092 10.6736 16.0884 10.9375 15.5467C11.2014 15.005 11.4167 14.4287 11.5833 13.8175H8.41666C8.58332 14.4287 8.7986 15.005 9.06249 15.5467C9.32638 16.0884 9.63888 16.6092 9.99999 17.1092ZM7.83332 16.7759C7.58332 16.3175 7.36471 15.8417 7.17749 15.3484C6.99027 14.855 6.83388 14.3448 6.70832 13.8175H4.24999C4.65277 14.512 5.15638 15.1162 5.76082 15.63C6.36527 16.1439 7.0561 16.5259 7.83332 16.7759ZM12.1667 16.7759C12.9444 16.5259 13.6355 16.1439 14.24 15.63C14.8444 15.1162 15.3478 14.512 15.75 13.8175H13.2917C13.1667 14.3453 13.0105 14.8559 12.8233 15.3492C12.6361 15.8425 12.4172 16.3181 12.1667 16.7759ZM3.54166 12.1509H6.37499C6.33332 11.8731 6.30221 11.5989 6.28166 11.3284C6.2611 11.0578 6.25055 10.7764 6.24999 10.4842C6.24999 10.1925 6.26055 9.91143 6.28166 9.64088C6.30277 9.37032 6.33388 9.09588 6.37499 8.81755H3.54166C3.47221 9.09532 3.42027 9.36977 3.38582 9.64088C3.35138 9.91199 3.33388 10.1931 3.33332 10.4842C3.33332 10.7759 3.35082 11.0573 3.38582 11.3284C3.42082 11.5995 3.47277 11.8737 3.54166 12.1509ZM8.04166 12.1509H11.9583C12 11.8731 12.0314 11.5989 12.0525 11.3284C12.0736 11.0578 12.0839 10.7764 12.0833 10.4842C12.0833 10.1925 12.0728 9.91143 12.0517 9.64088C12.0305 9.37032 11.9994 9.09588 11.9583 8.81755H8.04166C7.99999 9.09532 7.96888 9.36977 7.94832 9.64088C7.92777 9.91199 7.91721 10.1931 7.91666 10.4842C7.91666 10.7759 7.92721 11.0573 7.94832 11.3284C7.96943 11.5995 8.00055 11.8737 8.04166 12.1509ZM13.625 12.1509H16.4583C16.5278 11.8731 16.58 11.5989 16.615 11.3284C16.65 11.0578 16.6672 10.7764 16.6667 10.4842C16.6667 10.1925 16.6494 9.91143 16.615 9.64088C16.5805 9.37032 16.5283 9.09588 16.4583 8.81755H13.625C13.6667 9.09532 13.698 9.36977 13.7192 9.64088C13.7403 9.91199 13.7505 10.1931 13.75 10.4842C13.75 10.7759 13.7394 11.0573 13.7183 11.3284C13.6972 11.5995 13.6661 11.8737 13.625 12.1509ZM13.2917 7.15088H15.75C15.3472 6.45643 14.8439 5.85227 14.24 5.33838C13.6361 4.82449 12.945 4.44255 12.1667 4.19255C12.4167 4.65088 12.6355 5.12671 12.8233 5.62005C13.0111 6.11338 13.1672 6.62366 13.2917 7.15088ZM8.41666 7.15088H11.5833C11.4167 6.53977 11.2014 5.96338 10.9375 5.42171C10.6736 4.88005 10.3611 4.35921 9.99999 3.85921C9.63888 4.35921 9.32638 4.88005 9.06249 5.42171C8.7986 5.96338 8.58332 6.53977 8.41666 7.15088ZM4.24999 7.15088H6.70832C6.83332 6.6231 6.98971 6.11255 7.17749 5.61921C7.36527 5.12588 7.58388 4.65032 7.83332 4.19255C7.05554 4.44255 6.36443 4.82449 5.75999 5.33838C5.15555 5.85227 4.65221 6.45643 4.24999 7.15088Z" fill="#232323"/>
</g>
</svg>
