<svg width="24" height="24" viewBox="0 0 24 24" fill="none" xmlns="http://www.w3.org/2000/svg">
<g id="system-uicons:side-menu">
<g id="Group">
<path id="Vector" d="M8.57141 7.42847H17.7143M8.57141 11.9976H14.2857M8.57141 16.5713H17.7143" stroke="white" stroke-width="1.14286" stroke-linecap="round" stroke-linejoin="round"/>
<path id="Vector_2" fill-rule="evenodd" clip-rule="evenodd" d="M5.14171 8.57136C5.71314 8.57136 6.28457 7.99993 6.28457 7.4285C6.28457 6.85707 5.71314 6.28564 5.14171 6.28564C4.57029 6.28564 4 6.85707 4 7.4285C4 7.99993 4.57029 8.57136 5.14171 8.57136ZM5.14171 13.1428C5.71314 13.1428 6.28457 12.5714 6.28457 11.9999C6.28457 11.4285 5.71314 10.8571 5.14171 10.8571C4.57029 10.8571 4 11.4285 4 11.9999C4 12.5714 4.57029 13.1428 5.14171 13.1428ZM5.14171 17.7142C5.71314 17.7142 6.28457 17.1428 6.28457 16.5714C6.28457 15.9999 5.71314 15.4285 5.14171 15.4285C4.57029 15.4285 4 15.9999 4 16.5714C4 17.1428 4.57029 17.7142 5.14171 17.7142Z" fill="white"/>
</g>
</g>
</svg>
