<svg width="17" height="16" viewBox="0 0 17 16" fill="none" xmlns="http://www.w3.org/2000/svg">
<path id="Vector" d="M0.166656 0.685274C0.166656 0.503398 0.238906 0.328972 0.367512 0.200367C0.496117 0.0717614 0.670543 -0.000488281 0.852419 -0.000488281H1.36263C2.23126 -0.000488281 2.75244 0.583781 3.0496 1.1269C3.24801 1.48899 3.39157 1.90867 3.50403 2.28904C3.53445 2.28664 3.56495 2.28542 3.59547 2.28539H15.023C15.7819 2.28539 16.3305 3.01138 16.1221 3.74194L14.4506 9.60201C14.3008 10.1276 13.9837 10.5901 13.5475 10.9194C13.1113 11.2487 12.5796 11.4269 12.0331 11.4271H6.59453C6.04363 11.4271 5.50797 11.2462 5.06988 10.9122C4.63179 10.5781 4.31552 10.1095 4.16968 9.57824L3.47477 7.04366L2.32269 3.1595L2.32178 3.15219C2.17914 2.63375 2.04564 2.14823 1.84632 1.78615C1.65522 1.43413 1.50161 1.37104 1.36354 1.37104H0.852419C0.670543 1.37104 0.496117 1.29879 0.367512 1.17018C0.238906 1.04158 0.166656 0.867149 0.166656 0.685274ZM4.80515 6.71084L5.49183 9.21524C5.62898 9.71082 6.07975 10.0555 6.59453 10.0555H12.0331C12.2815 10.0555 12.5232 9.97457 12.7215 9.82493C12.9198 9.67529 13.064 9.46511 13.1321 9.22621L14.7204 3.65691H3.90177L4.79235 6.66238L4.80515 6.71084ZM7.93863 14.1719C7.93863 14.6569 7.74596 15.1221 7.40301 15.465C7.06007 15.808 6.59493 16.0006 6.10993 16.0006C5.62493 16.0006 5.15979 15.808 4.81684 15.465C4.4739 15.1221 4.28123 14.6569 4.28123 14.1719C4.28123 13.6869 4.4739 13.2218 4.81684 12.8788C5.15979 12.5359 5.62493 12.3432 6.10993 12.3432C6.59493 12.3432 7.06007 12.5359 7.40301 12.8788C7.74596 13.2218 7.93863 13.6869 7.93863 14.1719ZM6.5671 14.1719C6.5671 14.0507 6.51894 13.9344 6.4332 13.8487C6.34746 13.7629 6.23118 13.7148 6.10993 13.7148C5.98868 13.7148 5.87239 13.7629 5.78666 13.8487C5.70092 13.9344 5.65275 14.0507 5.65275 14.1719C5.65275 14.2932 5.70092 14.4095 5.78666 14.4952C5.87239 14.5809 5.98868 14.6291 6.10993 14.6291C6.23118 14.6291 6.34746 14.5809 6.4332 14.4952C6.51894 14.4095 6.5671 14.2932 6.5671 14.1719ZM14.3391 14.1719C14.3391 14.6569 14.1464 15.1221 13.8035 15.465C13.4605 15.808 12.9954 16.0006 12.5104 16.0006C12.0254 16.0006 11.5602 15.808 11.2173 15.465C10.8743 15.1221 10.6817 14.6569 10.6817 14.1719C10.6817 13.6869 10.8743 13.2218 11.2173 12.8788C11.5602 12.5359 12.0254 12.3432 12.5104 12.3432C12.9954 12.3432 13.4605 12.5359 13.8035 12.8788C14.1464 13.2218 14.3391 13.6869 14.3391 14.1719ZM12.9676 14.1719C12.9676 14.0507 12.9194 13.9344 12.8336 13.8487C12.7479 13.7629 12.6316 13.7148 12.5104 13.7148C12.3891 13.7148 12.2728 13.7629 12.1871 13.8487C12.1014 13.9344 12.0532 14.0507 12.0532 14.1719C12.0532 14.2932 12.1014 14.4095 12.1871 14.4952C12.2728 14.5809 12.3891 14.6291 12.5104 14.6291C12.6316 14.6291 12.7479 14.5809 12.8336 14.4952C12.9194 14.4095 12.9676 14.2932 12.9676 14.1719Z" fill="#E30613"/>
</svg>
